<svg width="889" height="596" viewBox="0 0 889 596" fill="none" xmlns="http://www.w3.org/2000/svg">
<g clip-path="url(#clip0_176_22183)">
<g clip-path="url(#clip1_176_22183)">
<path d="M387.457 438.674C311.494 481.449 354.27 586.913 379.345 591.338C398.658 594.746 462.148 592.792 492.92 591.338L731.134 415.074L591.745 395.899C548.97 395.899 448.228 404.454 387.457 438.674Z" fill="white"/>
<path d="M492.92 591.338C491.822 591.392 494.111 591.281 492.92 591.338ZM492.92 591.338C462.148 592.792 398.658 594.746 379.345 591.338C354.27 586.913 311.494 481.449 387.457 438.674C448.228 404.454 548.97 395.899 591.745 395.899L731.134 415.074L492.92 591.338Z" stroke="black" stroke-width="2.91102"/>
<path d="M408.105 453.152C460.616 443.122 503.244 473.965 517.994 490.64C520.457 487.195 523.121 483.789 525.998 480.44C521.464 460.527 433.181 439.14 408.105 453.152Z" fill="#000001"/>
<path d="M487.596 593.52C489.46 593.439 491.239 593.358 492.921 593.278L687.486 449.312C678.915 446.413 656.824 437.494 637.029 425.009C502.733 440.923 481.451 543.98 487.596 593.52Z" fill="#0E1729"/>
<path d="M709.745 593.277C806.357 562.302 731.132 422.176 731.132 417.014L694.993 412.042C510.912 423.405 483.576 537.6 492.918 593.277L523.984 849.191H604.037L610.919 593.277H709.745Z" fill="white" stroke="black" stroke-width="2.91102"/>
<path d="M591.744 540.178C603.544 551.978 609.445 580.495 610.92 593.278H621.982C619.032 578.774 608.854 547.848 591.744 540.178Z" fill="#000001"/>
<rect x="94" y="593" width="796" height="3" fill="black"/>
<path d="M606.714 146.087C602.829 141.143 592.729 125.958 583.406 104.769C585.525 102.297 589.551 94.8102 588.703 84.6397C577.685 82.9446 571.009 59.2133 569.048 47.5595C583.678 39.4434 571.211 17.7927 575.99 16.8364C581.287 15.7765 595.06 21.0736 595.06 34.8463C595.06 48.6189 618.657 42.1179 624.724 39.084C639.556 31.668 634.259 49.6794 627.902 66.6298C624.512 72.5627 636.377 83.9339 642.734 88.8779C644.428 105.829 629.315 131.962 621.546 142.909C622.605 174.692 622.817 238.258 615.189 238.258C610.104 228.088 607.42 172.573 606.714 146.087Z" fill="white" stroke="black" stroke-width="1.94068"/>
<path d="M597.178 49.6729C595.412 51.4386 592.94 56.4532 597.178 62.3861" stroke="#241715" stroke-width="0.970341"/>
<path d="M605.652 65.5718C604.946 69.4564 601.838 75.3186 595.058 67.6906" stroke="#241715" stroke-width="0.970341"/>
<path d="M628.959 52.8539C630.372 48.9693 632.138 41.412 627.9 42.2596" stroke="#241715" stroke-width="0.970341"/>
<path d="M587.572 96.2916C588.506 93.0569 589.074 89.1066 588.702 84.6383C594.573 87.817 604.592 88.8765 625.781 74.0435C626.627 85.0616 600.661 93.4664 587.572 96.2916Z" fill="black"/>
<path d="M641.674 16.8356C649.09 34.846 632.139 59.213 627.901 66.629C634.258 49.6786 638.495 31.6671 624.723 39.0832C618.75 42.2994 595.059 48.6181 595.059 34.8454C595.059 21.0728 581.286 15.7756 575.989 16.8356C571.21 17.7919 583.677 39.4426 569.046 47.5587C567.46 48.4386 565.556 49.1594 563.276 49.6775C568.573 42.2615 566.454 43.3209 562.216 25.3105C557.979 7.30016 577.048 3.06296 595.059 0.944096C613.069 -1.17477 634.258 -1.17477 641.674 16.8356Z" fill="black"/>
<path d="M741.259 131.256C727.698 113.457 669.924 95.5882 642.731 88.8784C644.426 105.829 629.312 131.962 621.543 142.91C622.603 174.693 622.815 238.259 615.187 238.259C610.101 228.088 607.417 172.574 606.711 146.088C602.827 141.144 592.727 125.959 583.404 104.77C581.285 111.127 524.075 154.563 514.54 168.336C505.006 182.109 501.827 314.538 501.827 326.192C501.827 337.845 497.589 417.303 532.551 417.303C560.52 417.303 674.868 421.188 732.783 422.6C741.259 332.901 754.82 149.054 741.259 131.256Z" fill="black"/>
<path d="M501.831 326.185C559.747 314.178 675.578 300.97 675.578 344.195C675.578 387.42 621.9 411.848 595.061 418.659M675.578 98.3066C668.515 101.518 653.542 116.629 650.152 151.378C645.914 194.815 632.311 209.647 621.291 209.647M610.477 211.766C601.454 216.71 581.713 220.453 574.932 195.875C566.457 165.151 548.774 148.2 529.011 153.497M707.361 110.061C705.243 109.164 671.341 132.309 668.162 185.28C664.984 238.252 631.082 337.839 561.159 284.867C534.672 258.381 509.151 241.783 504.865 243.549M583.408 418.339C592.943 409.163 609.47 387.844 599.299 375.978C589.129 364.113 533.497 380.216 506.953 389.751M746.348 158.794C723.464 172.92 681.299 217.911 695.708 284.867C708.421 323.007 731.653 319.122 741.68 312.412M737.847 364.325C724.153 364.505 698.038 376.254 703.124 421.805" stroke="white" stroke-width="0.970341"/>
<path d="M615.188 417.294V239.309" stroke="#027269" stroke-width="0.970341"/>
<path d="M615.824 415.56L610.618 376.847C598.778 378.995 574.12 381.076 555.072 382.881C535.131 384.771 530.106 395.241 543.491 398.585C536.49 397.711 528.651 407.364 539.823 411.686C531.628 414.597 547.837 417.845 555.782 417.861C551.235 418.548 543.35 419.815 544.422 424.634C545.493 429.452 592.47 420.592 615.824 415.56Z" fill="white"/>
<path d="M615.825 415.561L610.619 376.848C607.864 377.348 604.416 377.844 600.506 378.334L588.661 420.952C598.613 419.143 608.41 417.159 615.825 415.561Z" fill="black"/>
<path d="M556.108 418.145L572.581 413.509" stroke="black" stroke-width="0.970341"/>
<path d="M543.597 407.801L572.477 404.295" stroke="black" stroke-width="0.970341"/>
<path d="M543.491 398.584L572.989 393.482" stroke="black" stroke-width="0.970341"/>
<path d="M772.691 381.564C775.255 340.991 778.053 136.522 732.285 125.5C679.382 112.759 680.075 307.755 703.043 352.24L595.016 363.222L605.152 430.622C657.672 426.954 768.449 448.703 772.691 381.564Z" fill="black"/>
<path d="M732.285 125.499C679.382 112.758 680.075 307.754 703.042 352.24L595.015 363.221" stroke="white" stroke-width="0.970341"/>
<path d="M754.322 154.883C737.975 156.661 701.645 166.098 692.733 188.221M764.493 190.481C749.761 196.925 715.271 218.617 710.921 240.885C706.57 263.152 752.647 255.634 771.274 251.505M772.404 290.493C756.921 297.721 702.645 302.52 690.473 285.973M772.968 359.993C757.111 350.37 711.46 331.161 699.514 338.522M656.571 356.603C649.79 371.294 660.41 425.315 690.473 431.189" stroke="white" stroke-width="0.970341"/>
<path d="M309.324 279.458H491.26C494.448 279.458 497.312 281.407 498.481 284.372L552.515 421.341C553.685 424.307 556.549 426.256 559.736 426.256H701.251C703.854 426.256 705.965 428.366 705.965 430.969C705.965 433.572 703.854 435.683 701.251 435.683H365.118C361.936 435.683 359.076 433.74 357.902 430.782L302.108 290.082C300.087 284.986 303.842 279.458 309.324 279.458Z" fill="white" stroke="black" stroke-width="2.91102"/>
<path d="M497.651 282.129L557.502 426.255H553.46C550.325 426.255 547.498 424.371 546.293 421.477L489.65 285.456C488.461 282.602 490.558 279.458 493.649 279.458C495.4 279.458 496.979 280.512 497.651 282.129Z" fill="black"/>
<path d="M357.902 430.782L302.108 290.082C300.087 284.986 303.842 279.458 309.324 279.458H323.352C324.507 279.458 325.644 279.716 326.693 280.199C331.658 282.486 339.954 286.082 353.731 293.043C399.822 316.331 405.644 365.818 395.941 390.077C388.074 409.743 492.054 430.071 532.905 435.683H365.118C361.936 435.683 359.076 433.74 357.902 430.782Z" fill="black"/>
<ellipse cx="11.5736" cy="13.3097" rx="11.5736" ry="13.3097" transform="matrix(-0.936312 0.351169 0.351169 0.936312 426.861 327.975)" fill="black"/>
</g>
</g>
<defs>
<clipPath id="clip0_176_22183">
<rect width="889" height="596" fill="white"/>
</clipPath>
<clipPath id="clip1_176_22183">
<rect width="889" height="596" fill="white"/>
</clipPath>
</defs>
</svg>
