<svg width="24" height="36" viewBox="0 0 24 36" fill="none" xmlns="http://www.w3.org/2000/svg">
<path d="M23.5299 12.2117C23.5299 16.8818 20.7628 20.9082 16.7798 22.735C18.4617 21.3496 19.5327 19.248 19.5327 16.896C19.5327 12.7642 16.2264 9.40419 12.1125 9.32043C12.0579 9.31667 12.008 9.31667 11.9534 9.31667C11.8988 9.31667 11.849 9.31667 11.7944 9.32043C10.2678 9.40325 9.05931 10.6663 9.05931 12.2108V26.6814C9.05931 31.4748 5.17036 35.3637 0.376953 35.3637V12.2117C0.376953 5.81925 5.56095 0.635254 11.9534 0.635254C18.3459 0.635254 23.5299 5.81925 23.5299 12.2117Z" fill="black"/>
<path d="M13.9987 14.2583C15.1289 13.1281 15.1289 11.2957 13.9987 10.1655C12.8685 9.03527 11.036 9.03527 9.90581 10.1655C8.77559 11.2957 8.77559 13.1281 9.90581 14.2583C11.036 15.3886 12.8685 15.3886 13.9987 14.2583Z" fill="black"/>
</svg>
