<svg width="530" height="572" viewBox="0 0 530 572" fill="none" xmlns="http://www.w3.org/2000/svg">
<path d="M515.447 0H14C7.37258 0 2 5.37261 2 12V513.447C2 520.074 7.37261 525.447 14 525.447H515.447C522.074 525.447 527.447 520.074 527.447 513.447V12C527.447 5.37258 522.074 0 515.447 0Z" stroke="black" stroke-width="4" stroke-miterlimit="10"/>
<path d="M113.085 526.403H387.62C388.773 515.912 346.72 292.825 297.324 221.108C291.716 212.969 243.71 207.047 226.086 227.292C132.734 334.5 110.829 523.833 113.085 526.403Z" fill="black"/>
<path d="M303.836 239.622C311.628 259.809 341.024 330.584 357.001 381.378C367.722 415.465 371.804 444.073 374.15 451.59C374.15 451.59 293.089 425.552 274.837 425.507C246.729 425.437 201.639 484.145 212.7 491.496C230.086 503.063 312.968 542.399 379.155 554.748C415.132 561.464 482.922 515.733 477.564 479.377C470.047 428.353 377.841 293.857 342.761 255.72C324.548 235.924 294.338 215.02 303.836 239.622Z" fill="#FF9581"/>
<path d="M482.505 490.163C480.807 526.916 434.832 557.856 408.166 559.49C362.179 562.278 224.223 522.103 224.223 522.103L277.849 418.791C277.849 418.791 371.721 450.654 374.105 451.551V451.513C373.278 448.777 350.144 361.845 339.807 333.039C339.256 331.449 338.615 329.822 338.012 328.111C335.039 320.132 330.956 309.596 326.445 298.215L326.4 298.132C323.901 291.832 321.26 285.244 318.665 278.746V278.707C307.328 250.542 296.28 223.735 296.28 223.735C312.083 226.331 327.688 234.636 353.309 261.526C378.879 288.384 485.312 429.532 482.505 490.163Z" fill="black"/>
<path d="M259.976 499.75C263.802 492.438 267.692 485.157 271.53 477.852C275.298 470.7 279.112 463.574 282.957 456.46C286.93 449.103 291.102 441.759 294.313 434.03C294.37 433.883 294.172 433.761 294.075 433.889C289.25 440.253 285.277 447.27 281.31 454.185C277.202 461.35 273.196 468.579 269.23 475.827C265.34 482.927 261.597 490.098 257.906 497.295C254.112 504.703 250.28 512.381 247.537 520.251C247.428 520.565 247.864 520.872 248.069 520.565C252.503 513.983 256.297 506.773 259.976 499.75Z" fill="#2B454E"/>
<path d="M402.816 466.797L374.15 451.596L374.105 451.558V451.519C373.279 448.783 350.144 361.851 339.807 333.045C339.256 331.456 338.615 329.828 338.013 328.117C335.039 320.138 330.957 309.603 326.445 298.221L402.816 466.797Z" fill="#1C1C1C"/>
<path d="M426.546 479.409C418.586 473.462 410.005 468.143 401.36 463.253C397.041 460.805 392.632 458.556 388.101 456.531C383.282 454.378 378.187 452.82 373.4 450.654C373.035 450.488 372.765 451.052 373.131 451.218C377.604 453.243 381.853 456.063 386.172 458.415C390.664 460.863 395.176 463.273 399.726 465.612C408.66 470.207 417.433 475.083 426.315 479.775C426.527 479.89 426.744 479.557 426.546 479.409Z" fill="#1C1C1C"/>
<path d="M405.673 457.153C398.476 457.249 355.039 445.649 348.714 451.609C310.16 487.952 297.971 480.633 289.762 485.369C226.234 521.917 141.398 564.854 111.118 565.123C65.1947 565.495 46.9048 526.954 54.5501 490.541C69.6422 418.56 166.718 278.208 210.642 240.91C233.931 221.165 232.092 250.946 222.46 283.322C216.807 302.304 206.925 330.527 196.845 358.224C187.918 382.897 164.258 445.944 163.847 447.424V447.463C163.809 447.546 163.77 447.591 163.777 447.636C163.745 447.802 163.911 447.835 164.283 447.732C166.302 447.36 220.627 421.758 275.259 407.692C294.511 402.738 334.602 395.676 348.977 402.091C357.526 405.904 357.667 411.005 357.667 411.005C357.667 411.005 364.517 410.383 371.746 416.33C376.54 420.278 378.026 425.86 378.026 425.86C378.026 425.86 385.524 426.911 389.427 431.256C394.08 436.44 394.49 441.926 394.49 441.926C404.615 444.63 405.673 457.153 405.673 457.153Z" fill="white"/>
<path d="M341.505 409.486C335.712 409.569 330.06 410.409 324.369 411.408C323.984 411.479 323.997 412.075 324.407 412.03C329.996 411.415 335.654 411.287 341.268 411.101C346.85 410.915 352.522 410.793 358.103 410.909C358.135 410.909 358.142 410.851 358.11 410.845C352.541 409.928 347.17 409.403 341.505 409.486Z" fill="#1A2E35"/>
<path d="M377.866 425.527C367.92 422.797 359.993 421.284 347.503 422.848C347.099 422.899 347.131 423.495 347.528 423.469C359.397 422.733 367.139 423.937 377.847 425.738C377.969 425.764 377.975 425.559 377.866 425.527Z" fill="#1A2E35"/>
<path d="M394.382 441.593C384.41 437.491 376.733 436.209 365.665 436.209C365.274 436.209 365.146 436.786 365.55 436.825C376.169 437.837 383.936 439.362 394.234 442.041C394.491 442.105 394.625 441.695 394.382 441.593Z" fill="#1A2E35"/>
<path d="M272.607 408.326C267.839 408.948 263.071 410.351 258.406 411.498C253.433 412.722 248.472 414.075 243.602 415.683C233.848 418.9 224.383 422.758 215.046 427.013C214.687 427.18 214.879 427.731 215.264 427.597C224.774 424.264 234.38 421.143 243.993 418.118C248.722 416.632 253.42 415.049 258.13 413.511C262.962 411.928 267.993 410.729 272.742 408.929C273.062 408.807 272.966 408.275 272.607 408.326Z" fill="#1A2E35"/>
<path d="M234.611 418.624C244.665 415.222 249.209 415.202 249.209 415.202L306.367 511.721C306.367 511.721 148.935 568.398 116.617 571.711C84.2924 575.024 47.5203 549.57 46.8987 508.991C46.0271 451.955 139.034 314.986 185.822 262.02C207.265 237.744 232.265 220.114 238.641 224.094C246.171 228.791 232.496 259.315 225.286 282.085C211.982 324.118 164.296 447.732 164.296 447.732C164.296 447.732 222.633 422.681 234.611 418.624Z" fill="black"/>
<path d="M248.696 415.125C239.827 415.645 201.484 429 182.682 437.068C163.943 445.111 145.916 454.653 129.004 466.073C119.436 472.533 110.355 479.563 101.383 486.824C101.076 487.074 101.409 487.574 101.742 487.337C118.276 475.513 135.938 464.964 153.812 455.307C171.595 445.7 189.706 436.581 208.553 429.231C219.287 425.046 237.744 418.778 248.228 416.029C251.195 415.247 248.972 415.106 248.696 415.125Z" fill="#1C1C1C"/>
<path d="M210.95 330.725C208.553 334.596 206.124 338.441 204.073 342.517C203.977 342.709 203.887 342.901 203.791 343.094C206.835 333.833 209.726 324.547 212.494 315.197C212.667 314.621 211.712 314.313 211.494 314.871C197.966 349.131 185.412 383.807 173.235 418.573C169.826 428.295 166.84 438.119 163.744 447.937C163.636 448.277 164.193 448.45 164.334 448.129C168.051 439.709 171.794 431.345 175.196 422.777C178.599 414.215 181.759 405.558 184.957 396.919C190.545 381.814 195.87 366.632 201.004 351.374C202.612 348.701 204.234 346.035 205.752 343.318C207.963 339.351 209.783 335.198 211.629 331.052C211.828 330.597 211.2 330.322 210.95 330.725Z" fill="#1C1C1C"/>
<path d="M268.063 490.701C263.871 483.588 259.744 476.442 255.572 469.322C251.484 462.344 247.453 455.339 243.441 448.322C239.295 441.061 235.264 433.64 230.4 426.828C230.31 426.699 230.092 426.808 230.156 426.956C233.008 434.415 236.866 441.497 240.647 448.514C244.562 455.788 248.587 463.004 252.644 470.2C256.617 477.25 260.725 484.216 264.89 491.156C269.171 498.289 273.67 505.601 278.906 512.086C279.117 512.343 279.604 512.144 279.457 511.798C276.208 504.556 272.087 497.533 268.063 490.701Z" fill="#1C1C1C"/>
<path d="M308.641 511.926C303.898 502.576 296.522 493.393 291.062 484.498C290.857 484.158 290.351 484.511 290.549 484.85C295.51 493.194 300.053 502.185 304.796 510.67C283.173 519.597 260.218 527.557 238.166 535.369C215.538 543.392 192.762 550.993 169.672 557.645C156.765 561.362 143.839 565.393 130.856 568.802C130.048 569.013 130.266 569.68 131.093 569.52C154.452 565.123 177.388 558.375 200.004 551.198C223.068 543.879 245.831 535.702 268.485 527.236C281.231 522.475 309.025 512.683 308.641 511.926Z" fill="#1C1C1C"/>
<path d="M271.152 408.39C241.423 416.003 207.214 428.532 191.885 434.53C191.481 434.671 191.116 434.812 190.751 434.947C177.248 440.253 168.885 444.188 166.879 444.521C166.712 444.444 166.584 444.329 166.456 444.252V444.214C165.053 443.201 163.662 442.432 162.278 441.913C158.471 440.548 121.891 435.979 122.814 424.648C123.705 413.44 138.611 414.138 140.803 414.292C138.432 413.773 118.578 409.121 125.044 399.207C129.613 392.176 149.275 393.208 151.255 393.285C149.249 392.625 131.011 386.678 137.284 376.559C141.777 369.317 163.726 370.259 166.257 370.689C164.207 369.907 147.948 367.183 155.536 358.461C160.804 352.386 202.132 358.564 220.505 367.734C247.825 381.372 271.152 408.39 271.152 408.39Z" fill="white"/>
<path d="M191.885 434.531C191.481 434.672 191.116 434.813 190.75 434.947C184.406 430.019 160.4 417.305 141.539 414.889C140.373 414.741 140.296 414.068 141.533 414.126C164.822 415.183 185.758 428.898 191.885 434.531Z" fill="#1A2E35"/>
<path d="M152.151 394.035C178.183 399.2 189.949 404.949 212.334 419.169C212.648 419.368 213 418.906 212.699 418.676C191.833 403.058 178.849 395.323 152.376 393.375C151.177 393.285 150.959 393.798 152.151 394.035Z" fill="#1A2E35"/>
<path d="M167.059 371.227C192.033 377.866 205.196 383.621 225.312 399.899C225.786 400.283 226.369 399.7 225.934 399.271C206.977 380.885 190.597 373.598 167.296 370.535C165.706 370.33 165.489 370.811 167.059 371.227Z" fill="#1A2E35"/>
<path d="M292.107 271.075C277.316 276.394 248.586 256.124 236.147 238.475C235.302 237.257 235.737 223.434 235.468 206.605C235.269 196.396 234.802 185.028 233.629 174.691L300.265 183.086C300.265 183.086 296.349 205.484 298.502 223.498C298.701 225.004 299.009 226.388 299.432 227.689C299.476 227.881 299.56 228.112 299.605 228.381C301.841 236.289 306.404 265.922 292.107 271.075Z" fill="white" stroke="black" stroke-width="0.640852" stroke-miterlimit="10"/>
<path d="M299.63 228.375C299.758 228.804 299.887 229.272 299.97 229.83C260.077 228.138 244.901 210.598 235.084 193.769C234.782 187.354 234.359 180.849 233.629 174.691L300.271 183.073C300.271 183.073 296.336 205.49 298.515 223.498C298.688 224.998 299.028 226.363 299.457 227.689C299.502 227.856 299.54 228.118 299.63 228.375Z" fill="black" stroke="black" stroke-width="0.640852" stroke-miterlimit="10"/>
<path d="M206.316 104.793C202.702 128.716 224.535 193.077 242.992 205.426C269.747 223.325 308.698 219.678 322.682 188.623C336.236 158.522 306.295 75.1536 286.134 64.4322C256.437 48.6352 211.654 69.45 206.316 104.793Z" fill="white" stroke="black" stroke-width="1.2817" stroke-miterlimit="10"/>
<path d="M267.933 133.74C267.843 133.587 267.664 134.061 267.728 134.234C269.311 138.528 270.407 143.718 266.959 146.468C266.85 146.551 266.94 146.769 267.074 146.698C271.643 144.43 270.125 137.554 267.933 133.74Z" fill="black"/>
<path d="M262.537 130.504C255.378 132.305 259.506 146.493 266.138 144.827C272.669 143.18 268.542 128.992 262.537 130.504Z" fill="black"/>
<path d="M294.67 125.691C294.657 125.512 295.074 125.8 295.119 125.98C296.26 130.414 298.31 135.304 302.713 135.605C302.848 135.612 302.905 135.843 302.751 135.862C297.695 136.592 295.035 130.075 294.67 125.691Z" fill="black"/>
<path d="M297.26 119.956C304.175 117.36 308.853 131.382 302.444 133.779C296.145 136.15 291.466 122.128 297.26 119.956Z" fill="black"/>
<path d="M255.053 125.64C256.84 124.589 258.321 123.327 259.987 122.103C261.865 120.725 263.499 119.821 264.326 117.54C264.768 116.316 263.935 114.592 262.788 114.047C260.109 112.785 257.392 113.9 255.065 115.463C252.54 117.162 251.028 119.116 250.144 122.026C249.285 124.845 252.688 127.024 255.053 125.64Z" fill="black"/>
<path d="M300.667 111.214C298.604 111.464 296.662 111.355 294.605 111.394C292.278 111.439 290.426 111.714 288.382 110.394C287.286 109.689 286.908 107.812 287.491 106.684C288.85 104.056 291.689 103.294 294.489 103.127C297.527 102.947 299.917 103.582 302.378 105.363C304.769 107.087 303.384 110.881 300.667 111.214Z" fill="black"/>
<path d="M278.104 174.486C279.456 175.21 280.918 176.319 282.552 175.992C284.115 175.678 285.711 174.467 286.954 173.512C287.076 173.416 287.262 173.524 287.211 173.685C286.563 175.703 284.468 177.459 282.327 177.696C280.238 177.927 278.751 176.492 277.739 174.813C277.598 174.575 277.906 174.383 278.104 174.486Z" fill="black"/>
<path d="M278.893 159.983C282.463 163.085 286.686 164.117 290.819 163.732C292.665 163.572 294.523 163.098 296.273 162.412C296.625 162.303 296.965 162.162 297.266 161.996C297.574 161.861 297.856 161.739 298.189 161.566C298.682 161.342 298.843 160.836 298.785 160.323L298.772 160.291C298.721 160.131 298.682 160.003 298.599 159.855C298.599 159.855 298.599 159.855 298.593 159.823L298.471 159.439C297.58 156.029 295.754 150.979 295.754 150.979C297.17 151.236 304.303 152.242 303.688 150.499C298.554 136.118 292.851 120.122 284.705 106.895C284.462 106.447 283.757 106.774 283.936 107.241C288.32 121.257 295.145 134.407 299.772 148.422C297.535 148.243 293.844 147.782 292.082 148.333C291.64 148.608 295.786 158.029 296.061 159.592C296.061 159.592 296.081 159.657 296.081 159.766C290.608 162.149 285.821 161.675 279.188 159.464C278.79 159.311 278.528 159.708 278.893 159.983Z" fill="black"/>
<path opacity="0.2" d="M213.339 150.133C217.114 147.044 221.881 131.215 224.099 124.679C226.399 117.886 219.574 90.3483 217.344 82.1582C211.711 88.5155 207.744 96.289 206.347 105.043C204.745 115.008 207.847 132.67 213.339 150.133Z" fill="black"/>
<path d="M276.342 90.0726C273.144 96.9682 266.665 101.903 259.064 102.813C251.663 103.697 243.235 100.833 238.724 94.6996C238.589 94.5201 238.307 94.7252 238.442 94.911C243.267 101.461 250.938 105.793 259.257 104.594C267.062 103.466 274.137 97.6924 276.842 90.2969C276.957 89.9637 276.489 89.7522 276.342 90.0726Z" fill="#1A2E35"/>
<path d="M239.396 44.0917C227.201 47.892 217.889 57.9213 215.806 67.5725C214.537 73.4363 215.614 78.7105 217.947 83.722C218.043 83.9271 218.466 83.754 218.389 83.5425C215.294 75.4358 216.678 64.7912 223.913 56.4281C230.866 48.3982 241.722 43.406 252.623 44.3096C258.314 44.7774 263.409 46.841 266.684 50.199C267.049 50.5771 267.888 50.0196 267.561 49.6223C262.018 42.919 250.432 40.6568 239.396 44.0917Z" fill="#1A2E35"/>
<path d="M318.317 50.2119C314.645 44.7262 308.935 40.7594 302.603 38.9778C293.734 36.4785 285.416 39.6187 277.219 42.8998C276.995 42.9895 277.136 43.3356 277.354 43.2459C284.345 40.471 291.593 38.0678 299.181 39.5482C305.365 40.7594 311.204 44.0598 315.209 48.9559C323.527 59.1198 322.95 74.8527 313.722 84.2476C308.499 89.5666 301.001 92.5786 293.554 92.3351C293.26 92.3287 293.176 92.7773 293.478 92.7965C307.198 93.604 320.227 83.7092 322.412 69.995C323.495 63.2276 322.156 55.9347 318.317 50.2119Z" fill="#1A2E35"/>
<path d="M206.168 118.488C206.168 118.488 188.282 99.8137 194.441 84.3308C197.927 75.5575 216.537 71.3215 216.537 71.3215C216.537 71.3215 219.466 59.1068 233.68 51.3333C248.042 43.4829 268.824 47.2895 268.824 47.2895C268.824 47.2895 281.045 34.825 296.907 38.7726C319.022 44.2775 324.835 73.9554 308.301 88.695C296.689 99.0447 275.054 92.2901 275.054 92.2901C273.362 93.0271 258.43 108.959 240.294 96.7376C240.294 96.7376 232.007 109.689 220.139 105.601C220.145 105.607 217.934 117.001 206.168 118.488Z" fill="black"/>
<path d="M299.414 226.972L285.238 266.185L235.636 219.377L222.697 235.495C222.697 235.495 272.35 310.974 272.511 307.469L287.09 273.741L310.827 295.914L306.771 238.129L299.414 226.972Z" fill="#EDEFEF"/>
<path d="M310.443 267.236C309.45 257.72 308.719 248.1 307.29 238.641C307.239 238.308 306.707 238.174 306.636 238.577C305.073 247.863 309.052 284.244 309.347 292.992C309.315 292.96 309.277 292.928 309.245 292.896C308.251 291.935 287.283 273.427 287.09 273.735C283.854 279.124 273.152 303.688 272.44 305.912C264.59 293.921 234.573 250.388 225.389 239.116C225.126 238.789 224.62 239.084 224.832 239.468C231.849 252.176 271.601 310.827 272.171 310.635C272.575 310.923 285.892 280.662 287.404 274.984C290.987 279.054 312.244 300.035 312.257 298.612C312.359 289.032 311.43 276.766 310.443 267.236Z" fill="#1C1C1C"/>
<path d="M228.394 156.612C228.394 156.612 209.905 137.797 201.125 144.737C192.346 151.678 208.745 180.702 220.812 183.022C232.88 185.342 235.244 174.217 235.244 174.217L228.394 156.612Z" fill="white" stroke="black" stroke-width="1.2817" stroke-miterlimit="10"/>
<path d="M206.034 152.934C205.848 152.946 205.855 153.209 206.028 153.248C214.532 155.138 219.966 161.816 224.19 168.981C221.325 166.43 217.832 165.36 214.353 168.84C214.173 169.025 214.423 169.314 214.641 169.23C217.787 167.987 220.236 168.154 222.876 170.397C224.747 171.986 226.208 174.146 227.682 176.094C228.176 176.741 229.4 176.145 228.99 175.37C228.958 175.312 228.925 175.254 228.893 175.197C227.381 165.014 217.108 152.126 206.034 152.934Z" fill="#1A2E35"/>
</svg>
