<svg width="600" height="468" viewBox="0 0 600 468" fill="none" xmlns="http://www.w3.org/2000/svg">
<g filter="url(#filter0_d_384_25371)">
<rect x="27" y="27" width="530" height="397.735" rx="33" fill="url(#paint0_linear_384_25371)"/>
</g>
<path d="M126.84 180H122.28L108.56 159.24V180H104V152.16H108.56L122.28 172.88V152.16H126.84V180ZM151.988 157.96V180H147.428V177.4C146.708 178.307 145.761 179.027 144.588 179.56C143.441 180.067 142.215 180.32 140.908 180.32C139.175 180.32 137.615 179.96 136.228 179.24C134.868 178.52 133.788 177.453 132.988 176.04C132.215 174.627 131.828 172.92 131.828 170.92V157.96H136.348V170.24C136.348 172.213 136.841 173.733 137.828 174.8C138.815 175.84 140.161 176.36 141.868 176.36C143.575 176.36 144.921 175.84 145.908 174.8C146.921 173.733 147.428 172.213 147.428 170.24V157.96H151.988ZM183.885 157.6C185.618 157.6 187.165 157.96 188.525 158.68C189.911 159.4 190.991 160.467 191.765 161.88C192.565 163.293 192.965 165 192.965 167V180H188.445V167.68C188.445 165.707 187.951 164.2 186.965 163.16C185.978 162.093 184.631 161.56 182.925 161.56C181.218 161.56 179.858 162.093 178.845 163.16C177.858 164.2 177.365 165.707 177.365 167.68V180H172.845V167.68C172.845 165.707 172.351 164.2 171.365 163.16C170.378 162.093 169.031 161.56 167.325 161.56C165.618 161.56 164.258 162.093 163.245 163.16C162.258 164.2 161.765 165.707 161.765 167.68V180H157.205V157.96H161.765V160.48C162.511 159.573 163.458 158.867 164.605 158.36C165.751 157.853 166.978 157.6 168.285 157.6C170.045 157.6 171.618 157.973 173.005 158.72C174.391 159.467 175.458 160.547 176.205 161.96C176.871 160.627 177.911 159.573 179.325 158.8C180.738 158 182.258 157.6 183.885 157.6ZM202.527 161.24C203.301 160.173 204.354 159.307 205.687 158.64C207.047 157.947 208.554 157.6 210.207 157.6C212.154 157.6 213.914 158.067 215.487 159C217.061 159.933 218.301 161.267 219.207 163C220.114 164.707 220.567 166.667 220.567 168.88C220.567 171.093 220.114 173.08 219.207 174.84C218.301 176.573 217.047 177.933 215.447 178.92C213.874 179.88 212.127 180.36 210.207 180.36C208.501 180.36 206.981 180.027 205.647 179.36C204.341 178.693 203.301 177.84 202.527 176.8V180H197.967V150.4H202.527V161.24ZM215.927 168.88C215.927 167.36 215.607 166.053 214.967 164.96C214.354 163.84 213.527 163 212.487 162.44C211.474 161.853 210.381 161.56 209.207 161.56C208.061 161.56 206.967 161.853 205.927 162.44C204.914 163.027 204.087 163.88 203.447 165C202.834 166.12 202.527 167.44 202.527 168.96C202.527 170.48 202.834 171.813 203.447 172.96C204.087 174.08 204.914 174.933 205.927 175.52C206.967 176.107 208.061 176.4 209.207 176.4C210.381 176.4 211.474 176.107 212.487 175.52C213.527 174.907 214.354 174.027 214.967 172.88C215.607 171.733 215.927 170.4 215.927 168.88ZM244.477 168.44C244.477 169.267 244.423 170.013 244.317 170.68H227.477C227.61 172.44 228.263 173.853 229.437 174.92C230.61 175.987 232.05 176.52 233.757 176.52C236.21 176.52 237.943 175.493 238.957 173.44H243.877C243.21 175.467 241.997 177.133 240.237 178.44C238.503 179.72 236.343 180.36 233.757 180.36C231.65 180.36 229.757 179.893 228.077 178.96C226.423 178 225.117 176.667 224.157 174.96C223.223 173.227 222.757 171.227 222.757 168.96C222.757 166.693 223.21 164.707 224.117 163C225.05 161.267 226.343 159.933 227.997 159C229.677 158.067 231.597 157.6 233.757 157.6C235.837 157.6 237.69 158.053 239.317 158.96C240.943 159.867 242.21 161.147 243.117 162.8C244.023 164.427 244.477 166.307 244.477 168.44ZM239.717 167C239.69 165.32 239.09 163.973 237.917 162.96C236.743 161.947 235.29 161.44 233.557 161.44C231.983 161.44 230.637 161.947 229.517 162.96C228.397 163.947 227.73 165.293 227.517 167H239.717ZM252.724 161.16C253.391 160.04 254.271 159.173 255.364 158.56C256.484 157.92 257.804 157.6 259.324 157.6V162.32H258.164C256.377 162.32 255.017 162.773 254.084 163.68C253.177 164.587 252.724 166.16 252.724 168.4V180H248.164V157.96H252.724V161.16ZM124.12 220.2C123.4 218.813 122.4 217.773 121.12 217.08C119.84 216.36 118.36 216 116.68 216C114.84 216 113.2 216.413 111.76 217.24C110.32 218.067 109.187 219.24 108.36 220.76C107.56 222.28 107.16 224.04 107.16 226.04C107.16 228.04 107.56 229.813 108.36 231.36C109.187 232.88 110.32 234.053 111.76 234.88C113.2 235.707 114.84 236.12 116.68 236.12C119.16 236.12 121.173 235.427 122.72 234.04C124.267 232.653 125.213 230.773 125.56 228.4H115.12V224.76H130.44V228.32C130.147 230.48 129.373 232.467 128.12 234.28C126.893 236.093 125.28 237.547 123.28 238.64C121.307 239.707 119.107 240.24 116.68 240.24C114.067 240.24 111.68 239.64 109.52 238.44C107.36 237.213 105.64 235.52 104.36 233.36C103.107 231.2 102.48 228.76 102.48 226.04C102.48 223.32 103.107 220.88 104.36 218.72C105.64 216.56 107.36 214.88 109.52 213.68C111.707 212.453 114.093 211.84 116.68 211.84C119.64 211.84 122.267 212.573 124.56 214.04C126.88 215.48 128.56 217.533 129.6 220.2H124.12ZM154.338 228.44C154.338 229.267 154.284 230.013 154.178 230.68H137.338C137.471 232.44 138.124 233.853 139.298 234.92C140.471 235.987 141.911 236.52 143.618 236.52C146.071 236.52 147.804 235.493 148.818 233.44H153.738C153.071 235.467 151.858 237.133 150.098 238.44C148.364 239.72 146.204 240.36 143.618 240.36C141.511 240.36 139.618 239.893 137.938 238.96C136.284 238 134.978 236.667 134.018 234.96C133.084 233.227 132.618 231.227 132.618 228.96C132.618 226.693 133.071 224.707 133.978 223C134.911 221.267 136.204 219.933 137.858 219C139.538 218.067 141.458 217.6 143.618 217.6C145.698 217.6 147.551 218.053 149.178 218.96C150.804 219.867 152.071 221.147 152.978 222.8C153.884 224.427 154.338 226.307 154.338 228.44ZM149.578 227C149.551 225.32 148.951 223.973 147.778 222.96C146.604 221.947 145.151 221.44 143.418 221.44C141.844 221.44 140.498 221.947 139.378 222.96C138.258 223.947 137.591 225.293 137.378 227H149.578ZM169.145 217.6C170.878 217.6 172.425 217.96 173.785 218.68C175.172 219.4 176.252 220.467 177.025 221.88C177.798 223.293 178.185 225 178.185 227V240H173.665V227.68C173.665 225.707 173.172 224.2 172.185 223.16C171.198 222.093 169.852 221.56 168.145 221.56C166.438 221.56 165.078 222.093 164.065 223.16C163.078 224.2 162.585 225.707 162.585 227.68V240H158.025V217.96H162.585V220.48C163.332 219.573 164.278 218.867 165.425 218.36C166.598 217.853 167.838 217.6 169.145 217.6ZM203.402 228.44C203.402 229.267 203.348 230.013 203.242 230.68H186.402C186.535 232.44 187.188 233.853 188.362 234.92C189.535 235.987 190.975 236.52 192.682 236.52C195.135 236.52 196.868 235.493 197.882 233.44H202.802C202.135 235.467 200.922 237.133 199.162 238.44C197.428 239.72 195.268 240.36 192.682 240.36C190.575 240.36 188.682 239.893 187.002 238.96C185.348 238 184.042 236.667 183.082 234.96C182.148 233.227 181.682 231.227 181.682 228.96C181.682 226.693 182.135 224.707 183.042 223C183.975 221.267 185.268 219.933 186.922 219C188.602 218.067 190.522 217.6 192.682 217.6C194.762 217.6 196.615 218.053 198.242 218.96C199.868 219.867 201.135 221.147 202.042 222.8C202.948 224.427 203.402 226.307 203.402 228.44ZM198.642 227C198.615 225.32 198.015 223.973 196.842 222.96C195.668 221.947 194.215 221.44 192.482 221.44C190.908 221.44 189.562 221.947 188.442 222.96C187.322 223.947 186.655 225.293 186.442 227H198.642ZM211.649 221.16C212.316 220.04 213.196 219.173 214.289 218.56C215.409 217.92 216.729 217.6 218.249 217.6V222.32H217.089C215.302 222.32 213.942 222.773 213.009 223.68C212.102 224.587 211.649 226.16 211.649 228.4V240H207.089V217.96H211.649V221.16ZM220.121 228.88C220.121 226.667 220.574 224.707 221.481 223C222.414 221.293 223.667 219.973 225.241 219.04C226.841 218.08 228.601 217.6 230.521 217.6C232.254 217.6 233.761 217.947 235.041 218.64C236.347 219.307 237.387 220.147 238.161 221.16V217.96H242.761V240H238.161V236.72C237.387 237.76 236.334 238.627 235.001 239.32C233.667 240.013 232.147 240.36 230.441 240.36C228.547 240.36 226.814 239.88 225.241 238.92C223.667 237.933 222.414 236.573 221.481 234.84C220.574 233.08 220.121 231.093 220.121 228.88ZM238.161 228.96C238.161 227.44 237.841 226.12 237.201 225C236.587 223.88 235.774 223.027 234.761 222.44C233.747 221.853 232.654 221.56 231.481 221.56C230.307 221.56 229.214 221.853 228.201 222.44C227.187 223 226.361 223.84 225.721 224.96C225.107 226.053 224.801 227.36 224.801 228.88C224.801 230.4 225.107 231.733 225.721 232.88C226.361 234.027 227.187 234.907 228.201 235.52C229.241 236.107 230.334 236.4 231.481 236.4C232.654 236.4 233.747 236.107 234.761 235.52C235.774 234.933 236.587 234.08 237.201 232.96C237.841 231.813 238.161 230.48 238.161 228.96ZM253.27 221.68V233.88C253.27 234.707 253.457 235.307 253.83 235.68C254.23 236.027 254.897 236.2 255.83 236.2H258.63V240H255.03C252.977 240 251.403 239.52 250.31 238.56C249.217 237.6 248.67 236.04 248.67 233.88V221.68H246.07V217.96H248.67V212.48H253.27V217.96H258.63V221.68H253.27ZM264.353 215.04C263.526 215.04 262.833 214.76 262.273 214.2C261.713 213.64 261.433 212.947 261.433 212.12C261.433 211.293 261.713 210.6 262.273 210.04C262.833 209.48 263.526 209.2 264.353 209.2C265.153 209.2 265.833 209.48 266.393 210.04C266.953 210.6 267.233 211.293 267.233 212.12C267.233 212.947 266.953 213.64 266.393 214.2C265.833 214.76 265.153 215.04 264.353 215.04ZM266.593 217.96V240H262.033V217.96H266.593ZM281.34 240.36C279.26 240.36 277.38 239.893 275.7 238.96C274.02 238 272.7 236.667 271.74 234.96C270.78 233.227 270.3 231.227 270.3 228.96C270.3 226.72 270.793 224.733 271.78 223C272.766 221.267 274.113 219.933 275.82 219C277.526 218.067 279.433 217.6 281.54 217.6C283.646 217.6 285.553 218.067 287.26 219C288.966 219.933 290.313 221.267 291.3 223C292.286 224.733 292.78 226.72 292.78 228.96C292.78 231.2 292.273 233.187 291.26 234.92C290.246 236.653 288.86 238 287.1 238.96C285.366 239.893 283.446 240.36 281.34 240.36ZM281.34 236.4C282.513 236.4 283.606 236.12 284.62 235.56C285.66 235 286.5 234.16 287.14 233.04C287.78 231.92 288.1 230.56 288.1 228.96C288.1 227.36 287.793 226.013 287.18 224.92C286.566 223.8 285.753 222.96 284.74 222.4C283.726 221.84 282.633 221.56 281.46 221.56C280.286 221.56 279.193 221.84 278.18 222.4C277.193 222.96 276.406 223.8 275.82 224.92C275.233 226.013 274.94 227.36 274.94 228.96C274.94 231.333 275.54 233.173 276.74 234.48C277.966 235.76 279.5 236.4 281.34 236.4ZM307.608 217.6C309.341 217.6 310.888 217.96 312.248 218.68C313.634 219.4 314.714 220.467 315.488 221.88C316.261 223.293 316.648 225 316.648 227V240H312.128V227.68C312.128 225.707 311.634 224.2 310.648 223.16C309.661 222.093 308.314 221.56 306.608 221.56C304.901 221.56 303.541 222.093 302.528 223.16C301.541 224.2 301.048 225.707 301.048 227.68V240H296.488V217.96H301.048V220.48C301.794 219.573 302.741 218.867 303.888 218.36C305.061 217.853 306.301 217.6 307.608 217.6ZM124.12 280.2C123.4 278.813 122.4 277.773 121.12 277.08C119.84 276.36 118.36 276 116.68 276C114.84 276 113.2 276.413 111.76 277.24C110.32 278.067 109.187 279.24 108.36 280.76C107.56 282.28 107.16 284.04 107.16 286.04C107.16 288.04 107.56 289.813 108.36 291.36C109.187 292.88 110.32 294.053 111.76 294.88C113.2 295.707 114.84 296.12 116.68 296.12C119.16 296.12 121.173 295.427 122.72 294.04C124.267 292.653 125.213 290.773 125.56 288.4H115.12V284.76H130.44V288.32C130.147 290.48 129.373 292.467 128.12 294.28C126.893 296.093 125.28 297.547 123.28 298.64C121.307 299.707 119.107 300.24 116.68 300.24C114.067 300.24 111.68 299.64 109.52 298.44C107.36 297.213 105.64 295.52 104.36 293.36C103.107 291.2 102.48 288.76 102.48 286.04C102.48 283.32 103.107 280.88 104.36 278.72C105.64 276.56 107.36 274.88 109.52 273.68C111.707 272.453 114.093 271.84 116.68 271.84C119.64 271.84 122.267 272.573 124.56 274.04C126.88 275.48 128.56 277.533 129.6 280.2H124.12ZM132.618 288.88C132.618 286.667 133.071 284.707 133.978 283C134.911 281.293 136.164 279.973 137.738 279.04C139.338 278.08 141.098 277.6 143.018 277.6C144.751 277.6 146.258 277.947 147.538 278.64C148.844 279.307 149.884 280.147 150.658 281.16V277.96H155.258V300H150.658V296.72C149.884 297.76 148.831 298.627 147.498 299.32C146.164 300.013 144.644 300.36 142.938 300.36C141.044 300.36 139.311 299.88 137.738 298.92C136.164 297.933 134.911 296.573 133.978 294.84C133.071 293.08 132.618 291.093 132.618 288.88ZM150.658 288.96C150.658 287.44 150.338 286.12 149.698 285C149.084 283.88 148.271 283.027 147.258 282.44C146.244 281.853 145.151 281.56 143.978 281.56C142.804 281.56 141.711 281.853 140.698 282.44C139.684 283 138.858 283.84 138.218 284.96C137.604 286.053 137.298 287.36 137.298 288.88C137.298 290.4 137.604 291.733 138.218 292.88C138.858 294.027 139.684 294.907 140.698 295.52C141.738 296.107 142.831 296.4 143.978 296.4C145.151 296.4 146.244 296.107 147.258 295.52C148.271 294.933 149.084 294.08 149.698 292.96C150.338 291.813 150.658 290.48 150.658 288.96ZM187.127 277.6C188.86 277.6 190.407 277.96 191.767 278.68C193.154 279.4 194.234 280.467 195.007 281.88C195.807 283.293 196.207 285 196.207 287V300H191.687V287.68C191.687 285.707 191.194 284.2 190.207 283.16C189.22 282.093 187.874 281.56 186.167 281.56C184.46 281.56 183.1 282.093 182.087 283.16C181.1 284.2 180.607 285.707 180.607 287.68V300H176.087V287.68C176.087 285.707 175.594 284.2 174.607 283.16C173.62 282.093 172.274 281.56 170.567 281.56C168.86 281.56 167.5 282.093 166.487 283.16C165.5 284.2 165.007 285.707 165.007 287.68V300H160.447V277.96H165.007V280.48C165.754 279.573 166.7 278.867 167.847 278.36C168.994 277.853 170.22 277.6 171.527 277.6C173.287 277.6 174.86 277.973 176.247 278.72C177.634 279.467 178.7 280.547 179.447 281.96C180.114 280.627 181.154 279.573 182.567 278.8C183.98 278 185.5 277.6 187.127 277.6ZM221.409 288.44C221.409 289.267 221.356 290.013 221.249 290.68H204.409C204.543 292.44 205.196 293.853 206.369 294.92C207.543 295.987 208.983 296.52 210.689 296.52C213.143 296.52 214.876 295.493 215.889 293.44H220.809C220.143 295.467 218.929 297.133 217.169 298.44C215.436 299.72 213.276 300.36 210.689 300.36C208.583 300.36 206.689 299.893 205.009 298.96C203.356 298 202.049 296.667 201.089 294.96C200.156 293.227 199.689 291.227 199.689 288.96C199.689 286.693 200.143 284.707 201.049 283C201.983 281.267 203.276 279.933 204.929 279C206.609 278.067 208.529 277.6 210.689 277.6C212.769 277.6 214.623 278.053 216.249 278.96C217.876 279.867 219.143 281.147 220.049 282.8C220.956 284.427 221.409 286.307 221.409 288.44ZM216.649 287C216.623 285.32 216.023 283.973 214.849 282.96C213.676 281.947 212.223 281.44 210.489 281.44C208.916 281.44 207.569 281.947 206.449 282.96C205.329 283.947 204.663 285.293 204.449 287H216.649Z" fill="black"/>
<rect x="344" y="350" width="58" height="52" rx="7" fill="white"/>
<path d="M372.52 383V370.56L373.4 371.24H369.66V368.4H375.78V383H372.52Z" fill="#2A2A2A"/>
<rect x="410" y="350" width="58" height="52" rx="7" fill="white"/>
<path d="M441.56 367.98C442.64 367.98 443.567 368.16 444.34 368.52C445.113 368.867 445.74 369.367 446.22 370.02C446.713 370.66 447.073 371.4 447.3 372.24C447.54 373.08 447.66 373.98 447.66 374.94V375.78C447.66 378.207 447.04 380.04 445.8 381.28C444.56 382.507 442.733 383.12 440.32 383.12C439.827 383.12 439.34 383.107 438.86 383.08C438.38 383.053 437.913 383.013 437.46 382.96V380.22C437.9 380.26 438.373 380.3 438.88 380.34C439.387 380.367 439.907 380.38 440.44 380.38C441.507 380.38 442.347 380.207 442.96 379.86C443.573 379.5 444.007 378.967 444.26 378.26C444.513 377.553 444.64 376.68 444.64 375.64V374.12L445.36 373.64C445.347 374.64 445.14 375.48 444.74 376.16C444.353 376.827 443.813 377.327 443.12 377.66C442.427 377.993 441.627 378.16 440.72 378.16C439.693 378.16 438.807 377.96 438.06 377.56C437.313 377.147 436.74 376.573 436.34 375.84C435.94 375.107 435.74 374.24 435.74 373.24C435.74 372.187 435.98 371.267 436.46 370.48C436.94 369.68 437.613 369.067 438.48 368.64C439.36 368.2 440.387 367.98 441.56 367.98ZM441.66 370.7C441.073 370.7 440.573 370.807 440.16 371.02C439.76 371.233 439.447 371.527 439.22 371.9C439.007 372.26 438.9 372.687 438.9 373.18C438.9 373.687 439.007 374.127 439.22 374.5C439.433 374.86 439.733 375.147 440.12 375.36C440.52 375.56 441.007 375.66 441.58 375.66C442.1 375.66 442.573 375.573 443 375.4C443.44 375.213 443.787 374.94 444.04 374.58C444.293 374.207 444.42 373.74 444.42 373.18C444.42 372.7 444.313 372.273 444.1 371.9C443.9 371.527 443.593 371.233 443.18 371.02C442.767 370.807 442.26 370.7 441.66 370.7Z" fill="#2A2A2A"/>
<rect x="476" y="350" width="58" height="52" rx="7" fill="white"/>
<path d="M507.2 383.38C506.067 383.38 505.08 383.173 504.24 382.76C503.413 382.333 502.78 381.76 502.34 381.04C501.9 380.32 501.68 379.507 501.68 378.6H504.84C504.84 379.213 505.047 379.713 505.46 380.1C505.873 380.473 506.453 380.66 507.2 380.66C507.693 380.66 508.113 380.567 508.46 380.38C508.807 380.193 509.073 379.94 509.26 379.62C509.447 379.287 509.54 378.913 509.54 378.5C509.54 377.86 509.333 377.333 508.92 376.92C508.52 376.507 507.947 376.3 507.2 376.3C506.8 376.3 506.447 376.36 506.14 376.48C505.847 376.6 505.593 376.747 505.38 376.92L503.9 374.42L508.32 371.54L508.14 371.2H502.28V368.4H512.12V371.44L507.02 374.68L505.42 374.24C505.687 374.16 505.967 374.1 506.26 374.06C506.567 374.007 506.893 373.98 507.24 373.98C508.373 373.98 509.347 374.167 510.16 374.54C510.973 374.913 511.6 375.44 512.04 376.12C512.493 376.787 512.72 377.567 512.72 378.46V378.7C512.72 379.593 512.493 380.393 512.04 381.1C511.6 381.807 510.967 382.367 510.14 382.78C509.327 383.18 508.347 383.38 507.2 383.38Z" fill="#2A2A2A"/>
<rect x="410" y="291" width="58" height="52" rx="7" fill="white"/>
<path d="M441.52 324.38C440.36 324.38 439.36 324.16 438.52 323.72C437.68 323.267 437.033 322.66 436.58 321.9C436.14 321.14 435.92 320.3 435.92 319.38H439.08C439.08 319.833 439.18 320.233 439.38 320.58C439.593 320.913 439.887 321.18 440.26 321.38C440.633 321.567 441.06 321.66 441.54 321.66C442.073 321.66 442.52 321.553 442.88 321.34C443.253 321.113 443.54 320.813 443.74 320.44C443.94 320.053 444.04 319.62 444.04 319.14C444.04 318.647 443.94 318.213 443.74 317.84C443.553 317.453 443.273 317.147 442.9 316.92C442.54 316.693 442.1 316.58 441.58 316.58C441.1 316.58 440.667 316.68 440.28 316.88C439.893 317.08 439.607 317.333 439.42 317.64H436.34L437.08 309.4H445.94V312.2H438.38L439.64 311.36L439.2 316.1L438.44 315.9C438.84 315.42 439.32 315.02 439.88 314.7C440.453 314.367 441.2 314.2 442.12 314.2C443.187 314.2 444.093 314.42 444.84 314.86C445.6 315.287 446.18 315.867 446.58 316.6C446.993 317.32 447.2 318.127 447.2 319.02V319.28C447.2 320.173 446.98 321.007 446.54 321.78C446.1 322.553 445.453 323.18 444.6 323.66C443.76 324.14 442.733 324.38 441.52 324.38Z" fill="#2A2A2A"/>
<rect x="476" y="226" width="58" height="52" rx="7" fill="white"/>
<path d="M508.64 259.38C507.48 259.38 506.487 259.193 505.66 258.82C504.833 258.433 504.16 257.913 503.64 257.26C503.133 256.607 502.753 255.853 502.5 255C502.26 254.133 502.14 253.22 502.14 252.26V251.12C502.14 249.787 502.373 248.58 502.84 247.5C503.307 246.42 504.02 245.56 504.98 244.92C505.94 244.28 507.16 243.96 508.64 243.96C510.12 243.96 511.333 244.28 512.28 244.92C513.24 245.56 513.953 246.42 514.42 247.5C514.887 248.58 515.12 249.787 515.12 251.12V252.26C515.12 253.22 514.993 254.133 514.74 255C514.5 255.853 514.12 256.607 513.6 257.26C513.093 257.913 512.427 258.433 511.6 258.82C510.787 259.193 509.8 259.38 508.64 259.38ZM508.64 256.36C509.72 256.36 510.52 255.987 511.04 255.24C511.573 254.48 511.84 253.307 511.84 251.72C511.84 250.04 511.567 248.833 511.02 248.1C510.487 247.353 509.693 246.98 508.64 246.98C507.56 246.98 506.753 247.353 506.22 248.1C505.687 248.833 505.42 250.027 505.42 251.68C505.42 253.28 505.68 254.46 506.2 255.22C506.733 255.98 507.547 256.36 508.64 256.36Z" fill="#2A2A2A"/>
<rect x="476" y="291" width="58" height="52" rx="7" fill="white"/>
<path d="M504.52 324V311.56L505.4 312.24H501.66V309.4H507.78V324H504.52Z" fill="#2A2A2A"/>
<defs>
<filter id="filter0_d_384_25371" x="0" y="0" width="600" height="467.735" filterUnits="userSpaceOnUse" color-interpolation-filters="sRGB">
<feFlood flood-opacity="0" result="BackgroundImageFix"/>
<feColorMatrix in="SourceAlpha" type="matrix" values="0 0 0 0 0 0 0 0 0 0 0 0 0 0 0 0 0 0 127 0" result="hardAlpha"/>
<feOffset dx="8" dy="8"/>
<feGaussianBlur stdDeviation="17.5"/>
<feComposite in2="hardAlpha" operator="out"/>
<feColorMatrix type="matrix" values="0 0 0 0 0 0 0 0 0 0 0 0 0 0 0 0 0 0 0.25 0"/>
<feBlend mode="normal" in2="BackgroundImageFix" result="effect1_dropShadow_384_25371"/>
<feBlend mode="normal" in="SourceGraphic" in2="effect1_dropShadow_384_25371" result="shape"/>
</filter>
<linearGradient id="paint0_linear_384_25371" x1="554.889" y1="199.997" x2="28.9323" y2="205.306" gradientUnits="userSpaceOnUse">
<stop stop-color="#7A87FB"/>
<stop offset="1" stop-color="#FFD49C"/>
</linearGradient>
</defs>
</svg>
