<svg width="54" height="42" viewBox="0 0 54 42" fill="none" xmlns="http://www.w3.org/2000/svg">
<path d="M0.840624 14.1868C0.146729 12.8564 0.541523 11.3122 1.76241 10.5053L1.76241 10.5053C2.96454 9.7107 4.57232 9.9652 5.49349 11.1373L5.88661 10.8283L5.49349 11.1373C5.73138 11.44 5.92256 11.8008 6.12102 12.1981C8.15715 16.2737 10.19 20.3508 12.2229 24.428C13.2156 26.4189 14.2082 28.4098 15.2013 30.4006C15.3095 30.6174 15.4279 30.8355 15.5591 31.077C15.6235 31.1957 15.691 31.3201 15.7619 31.4527L16.1924 32.2582L16.639 31.4616C16.6976 31.357 16.7551 31.2573 16.8105 31.161C16.9264 30.9598 17.0335 30.7738 17.1243 30.591L17.1243 30.591C17.6592 29.5141 18.1959 28.4374 18.7328 27.3603C20.1063 24.6047 21.4809 21.8468 22.8299 19.0775C25.8138 12.9521 32.0726 9.52474 38.9916 10.2827C45.4071 10.9856 50.946 15.9768 52.2916 22.4891C54.5418 33.3789 45.7714 41.9718 36.3375 41.4349C31.5293 41.1613 27.7258 39.1589 24.683 35.4929C24.5183 35.2944 24.4734 35.1734 24.4638 35.0871C24.4542 35.0015 24.4706 34.871 24.5933 34.6358L24.15 34.4045L24.5933 34.6358C25.2983 33.2844 25.9724 31.9124 26.6433 30.5467C26.8962 30.0318 27.1488 29.5178 27.4023 29.0062C28.8373 33.1726 32.9675 36.1254 37.2034 35.9197C42.0905 35.6825 45.9232 32.4741 46.9028 27.7711C47.9032 22.9676 45.0356 17.9142 40.3894 16.2825C35.6311 14.6114 30.3128 16.7064 28.0806 21.1744C26.239 24.8607 24.4028 28.5506 22.5669 32.2401C21.3032 34.7798 20.0395 37.3194 18.7742 39.8573L19.2216 40.0804L18.7742 39.8573C18.2393 40.9302 17.406 41.4949 16.2393 41.5002C15.6215 41.5031 15.1186 41.347 14.7053 41.0695C14.2887 40.7898 13.9362 40.3682 13.6534 39.8013C12.6401 37.7702 11.6269 35.739 10.6136 33.7078C7.60545 27.6776 4.59727 21.6473 1.58783 15.6176C1.42818 15.2977 1.25802 14.9767 1.09129 14.6621C1.00622 14.5017 0.922054 14.3429 0.840624 14.1868ZM0.840624 14.1868L0.397519 14.4179L0.840624 14.1868ZM27.2606 28.5799L27.0963 28.4982L27.2606 28.5799Z" stroke="black"/>
<path d="M20.9523 17.0655C22.6183 14.5472 24.5875 12.436 27.0068 10.7322C27.2357 10.571 27.3768 10.1377 27.3811 9.82823C27.4121 7.59742 27.4188 5.3656 27.3803 3.13504C27.3719 2.64995 27.236 2.12314 27.01 1.69387C26.2921 0.33007 24.8088 -0.268684 23.2913 0.113163C21.8615 0.472916 20.9073 1.69787 20.9025 3.26701C20.8887 7.66995 20.8964 12.073 20.8992 16.4759C20.8992 16.6725 20.9338 16.869 20.9523 17.0655Z" fill="black"/>
</svg>
